<svg id="10015.io" viewBox="0 0 480 480" xmlns="http://www.w3.org/2000/svg" xmlns:xlink="http://www.w3.org/1999/xlink" >
	<path fill="#c84b31" d="M436,271.5Q435,303,426.5,336Q418,369,391.5,391Q365,413,339.5,439.5Q314,466,277,466Q240,466,209,448.5Q178,431,152,414Q126,397,89.5,386.5Q53,376,50.5,339Q48,302,31.5,271Q15,240,35.5,210Q56,180,55,142.5Q54,105,87.5,90.5Q121,76,144.5,46.5Q168,17,204,11.5Q240,6,270,31.5Q300,57,336,58Q372,59,384.5,92.5Q397,126,418,150.5Q439,175,438,207.5Q437,240,436,271.5Z" />
</svg>